<svg width="156" height="27" viewBox="0 0 156 27" fill="none" xmlns="http://www.w3.org/2000/svg">
<g clip-path="url(#clip0_206_30686)">
<mask id="mask0_206_30686" style="mask-type:luminance" maskUnits="userSpaceOnUse" x="0" y="0" width="156" height="27">
<path d="M156 0H0V26.8353H156V0Z" fill="white"/>
</mask>
<g mask="url(#mask0_206_30686)">
<path d="M49.1017 26.4671L49.0978 21.73L32.7044 21.7445L46.0033 12.0645L42.7946 7.65477L30.2327 16.7988L35.0565 1.90534L29.1763 0.000732422L24.5417 14.3047L19.8831 0.00908107L14.0051 1.9237L18.8563 16.8093L6.27874 7.68705L3.07675 12.1035L16.3928 21.7601L0 21.774L0.00389603 26.511H17.3229C18.9428 26.5115 20.5185 25.9829 21.8103 25.0055C23.1021 24.0282 24.0393 22.6556 24.4793 21.0966L24.5534 20.8373L24.6146 21.0538C25.0524 22.617 25.9899 23.9939 27.2839 24.9742C28.5778 25.9546 30.1571 26.4843 31.7805 26.4826L49.1017 26.4671Z" fill="#154A3C"/>
<path d="M81.9826 20.6769V22.385H81.8941L81.2345 19.8926L66.6483 4.24951H62.5074V26.4653H66.6483V8.28413H66.7368L67.3908 10.7531L81.9826 26.4653H86.1391V4.24951H81.9826V20.6769Z" fill="#154A3C"/>
<path d="M92.9477 10.2081H88.8524V26.4657H92.9477V10.2081Z" fill="#154A3C"/>
<path d="M99.8103 15.4711C100.286 14.6655 100.991 14.0197 101.835 13.616C102.815 13.1589 103.887 12.9365 104.968 12.9665C106.195 12.9177 107.41 13.2195 108.472 13.8365C109.347 14.3618 109.996 15.1929 110.295 16.1691L110.341 16.2926H114.345L114.298 16.1535C114.125 14.9346 113.6 13.7925 112.789 12.8669C111.904 11.8711 110.789 11.1068 109.541 10.6406C108.05 10.081 106.467 9.80918 104.876 9.83968C103.065 9.79649 101.267 10.1542 99.6105 10.8872C98.1982 11.5204 96.9962 12.5438 96.1458 13.837C95.3047 15.18 94.8768 16.7405 94.9152 18.3247V18.3403C94.8781 19.9283 95.3035 21.4929 96.1397 22.8435C96.9815 24.1437 98.1847 25.1697 99.6016 25.7956C101.267 26.5236 103.072 26.8784 104.889 26.8353C106.461 26.8635 108.025 26.5972 109.5 26.05C110.749 25.5888 111.867 24.8305 112.758 23.8404C113.581 22.9082 114.126 21.763 114.329 20.536L114.344 20.3812H110.327L110.311 20.5048C110.006 21.4932 109.345 22.3329 108.455 22.8608C107.394 23.4619 106.187 23.7555 104.968 23.7084C103.886 23.7357 102.811 23.5174 101.826 23.0701C100.98 22.6773 100.275 22.0367 99.8019 21.2333C99.3137 20.3487 99.0717 19.3492 99.1012 18.3392V18.308C99.0752 17.3155 99.3204 16.3347 99.8103 15.4711Z" fill="#154A3C"/>
<path d="M131.323 10.7464C130.192 10.108 128.906 9.79355 127.608 9.83754C126.144 9.77991 124.691 10.1124 123.397 10.801C121.096 12.1368 120.477 15.1979 120.477 15.1979H120.283V4.24951H116.186V26.4653H120.282V18.401C120.257 17.4202 120.494 16.4505 120.967 15.5909C121.42 14.7987 122.09 14.1524 122.898 13.728C123.803 13.2651 124.808 13.0355 125.824 13.0601C127.414 13.0601 128.628 13.5015 129.465 14.3842C130.302 15.2669 130.72 16.54 130.719 18.2034V26.4653H134.814V17.4587C134.854 16.0396 134.541 14.6328 133.906 13.3634C133.326 12.2514 132.425 11.3398 131.32 10.7475" fill="#154A3C"/>
<path d="M156 18.4293C156.036 16.848 155.634 15.2875 154.837 13.9211C154.043 12.621 152.888 11.5803 151.512 10.9261C149.891 10.1749 148.118 9.80881 146.332 9.85639C144.556 9.7965 142.79 10.1414 141.167 10.8649C139.757 11.5025 138.559 12.5311 137.716 13.8287C136.866 15.1941 136.435 16.7787 136.476 18.3865V18.4021C136.43 20.0068 136.852 21.5903 137.693 22.9582C138.536 24.2482 139.748 25.2542 141.172 25.8452C142.885 26.546 144.725 26.8841 146.575 26.8381C147.647 26.8442 148.715 26.7332 149.762 26.5069C150.703 26.3067 151.61 25.9751 152.457 25.5218C153.226 25.1114 153.914 24.5667 154.49 23.9133C155.041 23.2813 155.455 22.5423 155.706 21.7426L155.752 21.5757H151.826L151.764 21.6992C151.506 22.1837 151.123 22.5903 150.655 22.8764C150.11 23.218 149.511 23.4675 148.885 23.615C147.12 24.0254 145.276 23.9378 143.559 23.3617C142.698 23.0806 141.944 22.5409 141.401 21.8161C140.858 21.0914 140.551 20.2168 140.523 19.3115H155.999L156 18.4293ZM140.6 16.7975C140.696 16.2213 140.899 15.668 141.197 15.1656C141.672 14.3892 142.377 13.7793 143.214 13.4201C144.22 12.9994 145.303 12.7972 146.393 12.8268C147.435 12.8001 148.469 13.0082 149.419 13.4357C150.093 13.7373 150.68 14.2033 151.127 14.791C151.574 15.3787 151.866 16.0692 151.977 16.7991L140.6 16.7975Z" fill="#154A3C"/>
<path d="M92.9477 4.25H88.8524V7.94956H92.9477V4.25Z" fill="#154A3C"/>
</g>
</g>
<defs>
<clipPath id="clip0_206_30686">
<rect width="156" height="26.8353" fill="white"/>
</clipPath>
</defs>
</svg>
