<?xml version="1.0" encoding="utf-8"?>
<!-- Generator: Adobe Illustrator 18.0.0, SVG Export Plug-In . SVG Version: 6.00 Build 0)  -->
<!DOCTYPE svg PUBLIC "-//W3C//DTD SVG 1.1//EN" "http://www.w3.org/Graphics/SVG/1.1/DTD/svg11.dtd">
<svg version="1.1"
	 id="Layer_1" image-rendering="auto" shape-rendering="auto" text-rendering="auto" color-rendering="auto" color-interpolation="auto"
	 xmlns="http://www.w3.org/2000/svg" xmlns:xlink="http://www.w3.org/1999/xlink" x="0px" y="0px" viewBox="0 0 1500 712"
	 enable-background="new 0 0 1500 712" xml:space="preserve">
<g>
	<path d="M1625.1,31.9h905.8v648.2h-905.8V31.9z M1702.2,72.9L2080,446.2l374.3-373.3H1702.2z M1666.6,106.6V605l250.2-248.7
		L1666.6,106.6z M2489.4,106.6l-250.2,249.7L2489.4,605V106.6z M1950.9,388.9l-248.7,250.7h751.6l-247.7-250.2L2079.5,516
		L1950.9,388.9z"/>
</g>
<path fill-rule="evenodd" clip-rule="evenodd" fill="none" stroke="#181616" stroke-width="50" stroke-linecap="round" stroke-miterlimit="1" d="
	M670-286.3c13.3,2.4,16.9-46,16.9-53.1c0-6.3-0.2-23-0.4-45.2c0.5-7.6-0.8-29.8,0.8-41.2c2.4-17.2,9.3-28.9,16.9-35.6
	c-59.1-6.7-121.2-29.5-121.2-131.5c0-29,10.4-52.8,27.4-71.4c-2.7-6.7-11.9-33.8,2.6-70.4c0,0,22.3-7.2,73.1,27.3
	c21.2-5.9,44-8.8,66.6-9c22.6,0.1,45.3,3.1,66.6,9c50.8-34.4,73.1-27.3,73.1-27.3c14.5,36.6,5.4,63.7,2.6,70.4
	c17,18.6,27.3,42.3,27.3,71.4c0,102.2-62.2,124.7-121.4,131.2c9.6,8.2,18.1,24.4,18.1,49.3c0,35.6-0.3,64.2-0.3,73
	c0,7.1,4.8,55.9,18.3,53.3"/>
<g>
	<g>
		<path fill="#181616" d="M554.3-452.6c-1.8,0-24.9,0.3-1.7,16.2c0,0,17.4,8.2,29.5,38.9c0,0,11.7,38.8,62.8,38.8
			c7.9,0,16.8-0.9,26.8-3.1l0.8-41.2c-6.7,3-17.9,7-30.4,7c-15.8,0-33.7-6.4-47-29.1c0,0-14-25.5-40.7-27.4
			C554.4-452.6,554.4-452.6,554.3-452.6L554.3-452.6z"/>
	</g>
</g>
<g>
	<g>
		<path fill="#181616" d="M495.2,448.4c-3,0-40.3,0.5-2.8,26.2c0,0,28.2,13.2,47.8,63c0,0,18.9,62.7,101.6,62.7
			c12.9,0,27.2-1.5,43.3-5l1.4-66.7c-10.8,4.9-29,11.3-49.2,11.3c-25.6,0-54.6-10.3-76-47c0,0-22.7-41.3-65.9-44.4
			C495.4,448.4,495.3,448.4,495.2,448.4L495.2,448.4z"/>
	</g>
</g>
<circle fill-rule="evenodd" clip-rule="evenodd" fill="none" stroke="#181616" stroke-width="50" stroke-linecap="round" stroke-miterlimit="1" cx="750" cy="-580.1" r="308"/>
<path fill-rule="evenodd" clip-rule="evenodd" fill="none" stroke="#181616" stroke-width="50" stroke-linecap="round" stroke-miterlimit="1" d="
	M-247.6-459.2c-59.1-6.7-121.2-29.5-121.2-131.5c0-29,10.4-52.8,27.4-71.4c-2.7-6.7-11.9-33.8,2.6-70.4c0,0,22.3-7.2,73.1,27.3
	c21.2-5.9,44-8.8,66.6-9c22.6,0.1,45.3,3.1,66.6,9c50.8-34.4,73.1-27.3,73.1-27.3c14.5,36.6,5.4,63.7,2.6,70.4
	c17,18.6,27.3,42.3,27.3,71.4c0,102.2-62.2,124.7-121.4,131.2L-247.6-459.2z"/>
<circle fill-rule="evenodd" clip-rule="evenodd" fill="none" stroke="#181616" stroke-width="50" stroke-linecap="round" stroke-miterlimit="1" cx="-199.1" cy="-596.1" r="308"/>
<path d="M-231.6,102.7c-3.9-2.6-8.4-4-13-4c-5,0-9.7,1.6-13.7,4.5c14.3-23,14.7-38.6,14.3-43.4c-0.6-8.3-5.7-15.6-13.2-19.1
	c-3.1-1.5-6.4-2.2-9.8-2.2c-4.8,0-9.5,1.5-13.4,4.3c-30.4,21.8-60.7,27.7-81.4,28.7c-32.3-29.3-74.2-45.5-118-45.5
	c-96.9,0-175.8,78.8-175.8,175.8c0,5.1,0.2,10.2,0.6,15.2c-152.4-7.2-275.3-150.1-276.5-151.6c-4.4-5.2-10.8-8.2-17.5-8.2
	c-0.7,0-1.4,0-2.1,0.1c-7.4,0.7-14.1,4.9-17.9,11.3c-42,71.7-21.7,136.6-1.7,173.9c-3.1,0.2-6.2,1-9,2.4
	c-7.7,3.8-12.6,11.6-12.8,20.2c-0.5,33.6,6.2,63.9,20.1,90c10.1,18.9,23.9,35.6,41,49.7c-0.5,0.5-1.1,1-1.6,1.6
	c-5.5,6-7.4,14.6-5,22.3c10.6,34.1,28.6,61.8,53.5,82.5c15.8,13.1,34.2,23.2,54.6,30.1c-41.7,25.6-91.2,31.2-126.5,31.2
	c-25,0-42.5-2.9-43.3-3l-0.1,0c-1.3-0.2-2.6-0.3-4-0.3c-9.2,0-17.5,5.4-21.1,13.9c-4.3,9.8-1.3,21.1,7.3,27.6
	c83.1,62.5,183.3,75.6,252.8,75.6c55.2,0,93.3-8.1,95-8.5c81.8-19.1,151.8-52.4,207.9-98.9c46.2-38.3,83.3-85.7,110.5-141
	c46.9-95.6,50.9-189,50.8-218.7c63.9-58.9,75.9-83.3,78-91.1C-219.8,118.4-223.5,108.2-231.6,102.7z M-346.7,210.6
	c0.2,3.4,19,339.8-333,422c-1.5,0.3-36.5,7.4-85,7.4c-38,0-92.6-4.4-146.7-24.3c24.1-3,46.6-8.5,67.2-16.3
	c33.2-12.7,61.3-31.6,83.6-56.2c6.1-6.7,7.6-16.5,3.9-24.8c-3.7-8.3-12-13.7-21.1-13.7c-2.8,0-65.8-0.7-101.1-56.8
	c13.8-0.4,26-3,35.8-7.4c9-4.1,14.4-13.5,13.3-23.4c-1.1-9.9-8.3-17.9-18.1-20c-3.2-0.7-76.8-17.4-94.6-93.1
	c9.3,2.8,18.5,4.2,27.1,4.2c3.6,0,7.1-0.3,10.5-0.7c8.9-1.3,16.3-7.8,18.8-16.4c2.5-8.7-0.3-18-7.2-23.9
	c-3.1-2.7-74.5-64.5-48.8-146.3c47.7,47,161.4,142.3,299.1,142.3c5.5,0,11.2-0.2,16.7-0.5c6.9-0.4,13.2-3.8,17.3-9.4
	c4.1-5.6,5.4-12.6,3.7-19.3c-2.7-10.5-4-21.3-4-32.3c0-71.5,58.2-129.7,129.8-129.7c35.1,0,67.9,13.8,92.5,38.8
	c4.3,4.3,10,6.8,16.1,6.9l2.8,0c9.9,0,24-0.9,40.4-4.4c-4.9,4.4-10.3,8.8-16,13.3c-8.1,6.3-11.1,16.9-7.4,26.5
	c3.4,8.8,12,14.7,21.4,14.7c0.6,0,1.2,0,1.9-0.1c2.3-0.2,8.5-0.7,16.8-1.9c-8.4,8.2-17.7,17-27.9,26.2
	C-344.5,196.8-347.2,203.6-346.7,210.6z"/>
<path fill-rule="evenodd" clip-rule="evenodd" fill="none" stroke="#181616" stroke-width="40" stroke-miterlimit="10" d="
	M1793.7-908c-139.4,0-252.5,113-252.5,252.5c0,111.5,72.3,206.2,172.7,239.6c12.6,2.3,17.2-5.5,17.2-12.2c0-6-0.2-21.9-0.3-42.9
	c-70.2,15.3-85.1-33.8-85.1-33.8c-11.5-29.2-28-36.9-28-36.9c-22.9-15.7,1.7-15.3,1.7-15.3c25.3,1.8,38.7,26,38.7,26
	c22.5,38.6,59.1,27.4,73.5,21c2.3-16.3,8.8-27.4,16-33.8c-56.1-6.4-115-28-115-124.8c0-27.6,9.8-50.1,26-67.8
	c-2.6-6.4-11.3-32.1,2.5-66.8c0,0,21.2-6.8,69.4,25.9c20.1-5.6,41.7-8.4,63.2-8.5c21.4,0.1,43,2.9,63.2,8.5
	c48.2-32.7,69.4-25.9,69.4-25.9c13.8,34.8,5.1,60.4,2.5,66.8c16.2,17.6,26,40.2,26,67.8c0,97-59,118.3-115.3,124.6
	c9.1,7.8,17.1,23.2,17.1,46.8c0,33.8-0.3,61-0.3,69.3c0,6.8,4.5,14.6,17.4,12.1c100.2-33.5,172.5-128,172.5-239.5
	C2046.2-795,1933.2-908,1793.7-908z"/>
<path fill-rule="evenodd" clip-rule="evenodd" fill="none" stroke="#181616" stroke-width="50" stroke-linecap="round" stroke-miterlimit="1" d="
	M-1214.7-426.5c18.4,3.4,23.5-63.8,23.5-73.5c0-8.7-0.3-31.9-0.5-62.7c0.7-10.6-1.2-41.3,1.2-57.1c3.3-23.8,12.9-40,23.4-49.3
	c-81.8-9.3-167.8-40.9-167.8-182.1c0-40.2,14.4-73.1,37.9-98.9c-3.8-9.3-16.4-46.8,3.6-97.5c0,0,30.9-9.9,101.3,37.8
	c29.4-8.2,60.9-12.3,92.2-12.4c31.3,0.1,62.8,4.2,92.2,12.4c70.3-47.7,101.2-37.8,101.2-37.8c20.1,50.7,7.5,88.2,3.7,97.5
	c23.6,25.8,37.9,58.6,37.9,98.9c0,141.5-86.1,172.7-168.2,181.8c13.2,11.4,25,33.9,25,68.2c0,49.3-0.5,89-0.5,101.1
	c0,9.9,6.6,77.5,25.3,73.9"/>
<g>
	<path fill-rule="evenodd" clip-rule="evenodd" fill="none" stroke="#181616" stroke-width="50" stroke-miterlimit="1" d="
		M-1206.1-561.3c-21,9.4-74.4,39.2-107.2-17.1c0,0-19.5-38.4-56.4-41c0,0-36-0.5-2.5,22.4c0,0,24.2,11.3,40.9,53.9
		c0,0,21.6,71.7,124.1,49.4L-1206.1-561.3z"/>
</g>
<path fill-rule="evenodd" clip-rule="evenodd" fill="none" stroke="#181616" stroke-width="50" stroke-linecap="round" stroke-miterlimit="1" d="
	M-1124.3-424c18.4,3.4,23.5-63.6,23.5-73.4c0-8.7-0.3-31.8-0.5-62.5c0.7-10.6-1.2-41.2,1.2-57"/>
<g>
	
		<path fill-rule="evenodd" clip-rule="evenodd" fill="none" stroke="#181616" stroke-width="50" stroke-linecap="round" stroke-miterlimit="1" d="
		M-2048.5-438.4c18.4,3.4,23.5-63.8,23.5-73.5c0-8.7-0.3-31.9-0.5-62.7c0.7-10.6-1.2-41.3,1.2-57.1c3.3-23.8,12.9-40,23.4-49.3
		c-81.8-9.3-167.8-40.9-167.8-182.1c0-40.2,14.4-73.1,37.9-98.9c-3.8-9.3-16.4-46.8,3.6-97.5c0,0,30.9-9.9,101.3,37.8
		c29.4-8.2,60.9-12.3,92.2-12.4c31.3,0.1,62.8,4.2,92.2,12.4c70.3-47.7,101.2-37.8,101.2-37.8c20.1,50.7,7.5,88.2,3.7,97.5
		c23.6,25.8,37.9,58.6,37.9,98.9c0,141.5-86.1,172.7-168.2,181.8c13.2,11.4,25,33.9,25,68.2c0,49.3-0.5,89-0.5,101.1
		c0,9.9,6.6,77.5,25.3,73.9"/>
	<g>
		<path fill="#181616" d="M-2155.8-605.9c0.1,0,0.1,0,0.1,0c24.7,1.7,37.8,27.5,37.8,27.5c10,17.2,22.9,22.4,35.3,22.4
			c14.8,0,28.9-7.5,36.5-10.9l-0.8,45.2c-9.2,2-17.5,2.9-24.8,2.9c-47.4,0-58.2-35.9-58.2-35.9c-11.2-28.5-27.4-36.1-27.4-36.1
			C-2178.9-605.6-2157.5-605.9-2155.8-605.9 M-2155.8-655.9C-2155.8-655.9-2155.8-655.9-2155.8-655.9c-34.4,0-52.9,20.2-58.8,39
			c-5.3,17-1.7,35.2,9.8,49.9c4.8,6.2,10.9,11.7,19.2,17.3l2.1,1.2c0.5,0.4,3.5,3.5,6.6,11.1c2.5,7,8.8,21.3,22.2,35.1
			c14.6,15.2,40.9,33.3,82.9,33.3c11.3,0,23.2-1.3,35.5-4l10.7-138.6c-1.1,0.5-16.7-6.6-18-6c-1.7,0.8-31,8.6-33.6,9.7
			c-3-4.9-7.7-11.5-14.2-18.2c-17-17.9-38.1-28.1-60.8-29.7l-2.9-0.1C-2155-655.9-2155.3-655.9-2155.8-655.9L-2155.8-655.9
			L-2155.8-655.9z"/>
	</g>
	
		<path fill-rule="evenodd" clip-rule="evenodd" fill="none" stroke="#181616" stroke-width="50" stroke-linecap="round" stroke-miterlimit="1" d="
		M-1958.1-435.9c18.4,3.4,23.5-63.6,23.5-73.4c0-8.7-0.3-31.8-0.5-62.5c0.7-10.6-1.2-41.2,1.2-57"/>
</g>
<path fill-rule="evenodd" clip-rule="evenodd" fill="none" stroke="#181616" stroke-width="55" stroke-linecap="round" stroke-miterlimit="1" d="
	M678.5,665.6C697,669,702,601.8,702,592.1c0-8.7-0.3-31.9-0.5-62.7c0.7-10.6-1.2-41.3,1.2-57.1c3.3-23.8,12.9-40,23.4-49.3
	c-81.8-9.3-182.8-40.9-182.8-182.1c0-40.2,14.4-73.1,37.9-98.9c-3.8-9.3-16.4-46.8,3.6-97.5c0,0,30.9-9.9,101.3,37.8
	c29.4-8.2,60.9-12.3,92.2-12.4c31.3,0.1,62.8,4.2,92.2,12.4c70.3-47.7,101.2-37.8,101.2-37.8c20.1,50.7,7.5,88.2,3.7,97.5
	c23.6,25.8,37.9,58.6,37.9,98.9c0,141.5-101.1,172.7-183.2,181.8c13.2,11.4,25,33.9,25,68.2c0,49.3-0.5,89-0.5,101.1
	c0,9.9,6.6,77.5,25.3,73.9"/>
</svg>
