<svg width="17" height="25" viewBox="0 0 17 25" fill="none" xmlns="http://www.w3.org/2000/svg">
<path fill-rule="evenodd" clip-rule="evenodd" d="M7.91216 14.2667C8.13328 14.6512 8.32722 15.0669 8.49315 15.5061C8.65768 15.0705 8.84974 14.6581 9.06854 14.2762C9.59113 13.3638 10.2837 12.6069 11.1086 12.1628C10.2897 11.7177 9.60198 10.9642 9.08228 10.0569C8.85159 9.65461 8.65065 9.21822 8.48034 8.75642C8.31258 9.21145 8.11511 9.64186 7.88886 10.0395C7.37185 10.9493 6.68586 11.7079 5.86697 12.1576C6.69399 12.5994 7.38824 13.3557 7.91216 14.2667ZM4.39807 11.5902C5.38797 11.5001 6.32315 10.7707 7.01944 9.54542C7.45663 8.7772 7.78095 7.84879 7.97211 6.8384C8.08345 6.24991 8.14961 5.63361 8.16658 5.00495C8.1668 4.99671 8.16702 4.98847 8.16722 4.98023C8.16735 4.9751 8.16747 4.96997 8.16759 4.96484L8.47316 0L8.79168 4.96484C8.7918 4.96977 8.79193 4.97469 8.79205 4.97961C8.79226 4.98752 8.79247 4.99542 8.79269 5.00332C8.81019 5.63226 8.8767 6.24916 8.98832 6.83825C9.18105 7.85542 9.50828 8.78969 9.95001 9.55985C10.6528 10.7867 11.5945 11.5097 12.5889 11.5902L17 12.1666L12.5751 12.743C11.5807 12.8235 10.639 13.5464 9.93623 14.7733C9.515 15.5086 9.19789 16.392 9.00244 17.3542C8.87402 17.9864 8.79812 18.6527 8.77973 19.3333C8.77954 19.3404 8.77936 19.3476 8.77917 19.3548C8.77906 19.3593 8.77895 19.3638 8.77884 19.3683L8.51285 24.3333L8.20729 19.3685C8.20718 19.3638 8.20707 19.3592 8.20695 19.3545C8.20681 19.3489 8.20666 19.3432 8.20651 19.3376C8.18837 18.6553 8.11247 17.9876 7.98383 17.3542C7.78767 16.3881 7.46887 15.5018 7.04528 14.7652C6.33972 13.5384 5.39527 12.8171 4.39807 12.743L0 12.1666L4.39807 11.5902Z" fill="#0058F7"/>
</svg>
