<?xml version="1.0" encoding="utf-8"?>
<!-- Generator: Adobe Illustrator 16.0.0, SVG Export Plug-In . SVG Version: 6.00 Build 0)  -->
<!DOCTYPE svg PUBLIC "-//W3C//DTD SVG 1.1//EN" "http://www.w3.org/Graphics/SVG/1.1/DTD/svg11.dtd">
<svg version="1.1"
	 id="Layer_1" color-interpolation="auto" color-rendering="auto" text-rendering="auto" shape-rendering="auto" image-rendering="auto"
	 xmlns="http://www.w3.org/2000/svg" xmlns:xlink="http://www.w3.org/1999/xlink" x="0px" y="0px" width="612px" height="612px"
	 viewBox="0 0 612 612" enable-background="new 0 0 612 612" xml:space="preserve">
<path d="M466.14,202.654c-1.591-1.061-3.427-1.632-5.304-1.632c-2.04,0-3.957,0.653-5.59,1.836
	c5.835-9.384,5.998-15.749,5.835-17.707c-0.245-3.386-2.326-6.365-5.386-7.793c-1.265-0.612-2.611-0.897-3.998-0.897
	c-1.959,0-3.876,0.612-5.468,1.754c-12.403,8.895-24.766,11.302-33.211,11.709c-13.179-11.995-30.233-18.564-48.104-18.564
	c-39.535,0-71.726,32.15-71.726,71.727c0,2.081,0.082,4.162,0.245,6.202c-62.179-2.979-112.322-61.282-112.812-61.894
	c-1.795-2.122-4.406-3.346-7.14-3.346c-0.286,0-0.571,0-0.856,0.041c-3.02,0.285-5.753,1.999-7.303,4.61
	c-17.136,29.253-8.854,55.732-0.694,70.951c-1.265,0.082-2.529,0.408-3.672,0.979c-3.142,1.55-5.141,4.733-5.223,8.242
	c-0.204,13.709,2.53,26.071,8.201,36.72c4.121,7.711,9.751,14.525,16.728,20.277c-0.204,0.205-0.449,0.408-0.653,0.653
	c-2.244,2.448-3.02,5.956-2.04,9.099c4.325,13.912,11.668,25.214,21.828,33.66c6.446,5.344,13.953,9.465,22.276,12.28
	c-17.014,10.444-37.209,12.729-51.612,12.729c-10.2,0-17.34-1.184-17.667-1.224h-0.041c-0.531-0.082-1.061-0.122-1.632-0.122
	c-3.753,0-7.14,2.203-8.609,5.671c-1.754,3.998-0.53,8.608,2.979,11.261c33.946,25.418,74.827,30.763,103.143,30.763
	c22.521,0,38.066-3.305,38.76-3.468c33.375-7.793,61.935-21.379,84.824-40.352c18.85-15.626,33.986-34.965,45.084-57.527
	c19.135-39.005,20.767-77.112,20.727-89.23c26.07-24.031,30.967-33.986,31.823-37.168
	C470.954,209.059,469.444,204.897,466.14,202.654z M419.18,246.677c0.081,1.387,7.752,138.639-135.864,172.176
	c-0.612,0.123-14.892,3.02-34.68,3.02c-15.504,0-37.781-1.795-59.854-9.914c9.833-1.225,19.013-3.469,27.417-6.65
	c13.545-5.182,25.01-12.894,34.109-22.931c2.489-2.732,3.101-6.731,1.591-10.117c-1.51-3.387-4.896-5.59-8.609-5.59
	c-1.143,0-26.847-0.286-41.249-23.175c5.63-0.163,10.608-1.224,14.606-3.019c3.672-1.674,5.875-5.509,5.426-9.548
	c-0.449-4.039-3.386-7.304-7.385-8.159c-1.306-0.286-31.334-7.1-38.597-37.985c3.794,1.142,7.548,1.713,11.057,1.713
	c1.469,0,2.897-0.123,4.284-0.286c3.631-0.53,6.65-3.182,7.67-6.691c1.02-3.55-0.123-7.344-2.938-9.751
	c-1.265-1.102-30.396-26.316-19.911-59.69c19.462,19.176,65.852,58.059,122.033,58.059c2.244,0,4.569-0.082,6.813-0.204
	c2.815-0.163,5.386-1.55,7.059-3.835c1.673-2.285,2.203-5.141,1.51-7.875c-1.103-4.284-1.633-8.69-1.633-13.179
	c0-29.172,23.746-52.917,52.959-52.917c14.32,0,27.703,5.63,37.74,15.831c1.754,1.754,4.079,2.774,6.568,2.815h1.143
	c4.039,0,9.792-0.367,16.483-1.795c-2,1.795-4.203,3.59-6.528,5.426c-3.305,2.57-4.529,6.895-3.02,10.812
	c1.388,3.59,4.896,5.998,8.731,5.998c0.245,0,0.489,0,0.775-0.041c0.938-0.082,3.468-0.286,6.854-0.775
	c-3.428,3.346-7.222,6.936-11.384,10.689C420.117,241.046,418.976,243.821,419.18,246.677z"/>
</svg>
